<mxfile host="app.diagrams.net" modified="2022-07-23T12:31:30.191Z" agent="5.0 (Windows NT 10.0; Win64; x64) AppleWebKit/537.36 (KHTML, like Gecko) Chrome/103.0.0.0 Safari/537.36" etag="Jfl49X3r-ia0BIn_cyDx" version="20.2.0" type="github">
  <diagram id="pEuZTppF4TNUZe_4-WYB" name="第 1 页">
    <mxGraphModel dx="1422" dy="754" grid="1" gridSize="10" guides="1" tooltips="1" connect="1" arrows="1" fold="1" page="1" pageScale="1" pageWidth="827" pageHeight="1169" math="0" shadow="0">
      <root>
        <mxCell id="0" />
        <mxCell id="1" parent="0" />
        <mxCell id="VnFf_Gizk1PIKV5BW_bI-3" style="edgeStyle=orthogonalEdgeStyle;rounded=0;orthogonalLoop=1;jettySize=auto;html=1;exitX=1;exitY=0.5;exitDx=0;exitDy=0;sketch=1;fontStyle=1;fillColor=#ffe6cc;strokeColor=#d79b00;" edge="1" parent="1" source="VnFf_Gizk1PIKV5BW_bI-1" target="VnFf_Gizk1PIKV5BW_bI-2">
          <mxGeometry relative="1" as="geometry" />
        </mxCell>
        <mxCell id="VnFf_Gizk1PIKV5BW_bI-1" value="生产者&lt;br&gt;（Producer）" style="ellipse;whiteSpace=wrap;html=1;aspect=fixed;sketch=1;fontStyle=1;fillColor=#ffe6cc;strokeColor=#d79b00;" vertex="1" parent="1">
          <mxGeometry x="50" y="220" width="70" height="70" as="geometry" />
        </mxCell>
        <mxCell id="VnFf_Gizk1PIKV5BW_bI-9" style="edgeStyle=orthogonalEdgeStyle;rounded=0;orthogonalLoop=1;jettySize=auto;html=1;exitX=1;exitY=0.5;exitDx=0;exitDy=0;sketch=1;fontStyle=1;fillColor=#ffe6cc;strokeColor=#d79b00;" edge="1" parent="1" source="VnFf_Gizk1PIKV5BW_bI-2" target="VnFf_Gizk1PIKV5BW_bI-4">
          <mxGeometry relative="1" as="geometry" />
        </mxCell>
        <mxCell id="VnFf_Gizk1PIKV5BW_bI-2" value="默认交换机&lt;br&gt;（direct）" style="rounded=1;whiteSpace=wrap;html=1;sketch=1;fontStyle=1;fillColor=#ffe6cc;strokeColor=#d79b00;" vertex="1" parent="1">
          <mxGeometry x="180" y="240" width="100" height="30" as="geometry" />
        </mxCell>
        <mxCell id="VnFf_Gizk1PIKV5BW_bI-4" value="" style="rounded=1;whiteSpace=wrap;html=1;sketch=1;fontStyle=1;fillColor=#ffe6cc;strokeColor=#d79b00;" vertex="1" parent="1">
          <mxGeometry x="330" y="210" width="20" height="90" as="geometry" />
        </mxCell>
        <mxCell id="VnFf_Gizk1PIKV5BW_bI-5" value="" style="rounded=1;whiteSpace=wrap;html=1;sketch=1;fontStyle=1;fillColor=#ffe6cc;strokeColor=#d79b00;" vertex="1" parent="1">
          <mxGeometry x="350" y="210" width="20" height="90" as="geometry" />
        </mxCell>
        <mxCell id="VnFf_Gizk1PIKV5BW_bI-8" value="" style="edgeStyle=orthogonalEdgeStyle;rounded=0;orthogonalLoop=1;jettySize=auto;html=1;entryX=0;entryY=0.5;entryDx=0;entryDy=0;sketch=1;fontStyle=1;fillColor=#ffe6cc;strokeColor=#d79b00;" edge="1" parent="1" source="VnFf_Gizk1PIKV5BW_bI-6" target="VnFf_Gizk1PIKV5BW_bI-10">
          <mxGeometry relative="1" as="geometry">
            <mxPoint x="420" y="255" as="targetPoint" />
          </mxGeometry>
        </mxCell>
        <mxCell id="VnFf_Gizk1PIKV5BW_bI-6" value="" style="rounded=1;whiteSpace=wrap;html=1;sketch=1;fontStyle=1;fillColor=#ffe6cc;strokeColor=#d79b00;" vertex="1" parent="1">
          <mxGeometry x="370" y="210" width="20" height="90" as="geometry" />
        </mxCell>
        <mxCell id="VnFf_Gizk1PIKV5BW_bI-10" value="消费者&lt;br&gt;（Consumer）" style="ellipse;whiteSpace=wrap;html=1;aspect=fixed;sketch=1;fontStyle=1;fillColor=#ffe6cc;strokeColor=#d79b00;" vertex="1" parent="1">
          <mxGeometry x="450" y="215" width="80" height="80" as="geometry" />
        </mxCell>
        <mxCell id="VnFf_Gizk1PIKV5BW_bI-11" value="简单队列模式：单生产单消费单队列，默认交换机 direct" style="text;html=1;strokeColor=none;fillColor=none;align=center;verticalAlign=middle;whiteSpace=wrap;rounded=0;fontStyle=1;fontColor=#FF0000;" vertex="1" parent="1">
          <mxGeometry x="30" y="180" width="350" height="20" as="geometry" />
        </mxCell>
        <mxCell id="VnFf_Gizk1PIKV5BW_bI-12" value="queue" style="text;html=1;strokeColor=none;fillColor=none;align=center;verticalAlign=middle;whiteSpace=wrap;rounded=0;fontColor=#FF0000;fontStyle=1" vertex="1" parent="1">
          <mxGeometry x="330" y="295" width="60" height="30" as="geometry" />
        </mxCell>
      </root>
    </mxGraphModel>
  </diagram>
</mxfile>
